<?xml version="1.0" encoding="UTF-8"?>
<svg viewBox="0 0 744.09448 750" xmlns="http://www.w3.org/2000/svg">
 <g transform="translate(0 -302.36)">
  <path d="m599.22 1050.6c-0.68243-2.1506-0.29332-11.467 0.86486-20.704 1.8948-15.112 1.7052-17.629-1.8938-25.136-5.4441-11.356-15.935-55.852-17.586-74.588-0.74073-8.4083-2.0031-16.531-2.8051-18.051-1.8844-3.5711-6.5752 8.0293-12.375 30.605-3.6429 14.179-4.1472 20.217-3.0367 36.366 1.061 15.428 0.72096 20.192-1.6722 23.439-2.3318 3.1639-2.7501 7.992-1.8693 21.586 1.0057 15.523 0.72299 17.669-2.4906 18.902-4.6669 1.7909-10.515-0.082-11.952-3.8247-0.61822-1.6115 0.15288-5.9849 1.7122-9.7187 3.3651-8.0536 2.7835-20.39-1.1865-25.169-7.0489-8.4839-5.5595-74.152 2.4456-107.83 2.1404-9.0049 3.8916-18.893 3.8916-21.973s2.3218-11.118 5.1598-17.86 4.6184-13.136 3.9564-14.207-4.1304-1.979-7.7079-2.0175c-10.795-0.11619-35.538-11.017-42.224-18.602-6.0536-6.8671-7.982-13.941-3.8006-13.941 1.2458 0 6.52 3.5332 11.72 7.8516 8.4348 7.0043 10.995 7.979 23.724 9.0318l14.268 1.18 7.9668-10.423c7.7886-10.19 7.9142-10.621 5.6054-19.253-4.3903-16.415-3.1924-24.654 4.7383-32.585 5.9085-5.9085 8.0872-6.883 12.984-5.8074 4.9621 1.0899 6.0813 0.55728 7.1406-3.3977 3.173-11.847-0.94252-21.899-9.0404-22.08-2.2042-0.0489-2.0558-0.70363 0.62006-2.736 2.8975-2.2006 3.1667-3.8922 1.5287-9.6037-4.5006-15.693-1.4468-19.852 8.4227-11.472 7.1955 6.109 9.9311 18.677 11.362 52.196 0.65104 15.254 2.3777 30.681 3.8371 34.281 5.1631 12.738 5.5063 23.421 1.001 31.162-18.018 30.962-19.017 36.432-10.351 56.706 6.2171 14.545 6.3624 15.596 5.7776 41.786-0.53689 24.038 0.0204 29.289 5.245 49.893 5.6284 22.175 5.7061 23.129 2.0999 25.766-3.5147 2.57-3.5854 4.0151-1.1523 23.512 2.2948 18.387 2.2218 21.34-0.63596 25.702-3.968 6.0556-12.501 6.6633-14.293 1.0177zm50.942-0.049c-0.79677-2.5106 0.7923-7.1712 4.3432-12.74l5.5997-8.7806-0.32695-41.786c-0.39258-50.147-4.254-73.368-12.201-73.375-5.4456 0-5.6304-1.3614-1.3536-9.9344 2.6732-5.3585 2.8402-8.1463 0.96535-16.11-6.0681-25.774-10.304-52.294-10.216-63.966 0.106-14.104 4.6274-51.773 6.8269-56.88 0.93804-2.1779-0.32613-4.0931-4.0002-6.0595-4.8008-2.5691-5.6547-2.4884-8.0291 0.75866-1.6029 2.1922-3.1682 2.8062-3.946 1.5475-1.9823-3.2073 6.3877-10.388 12.109-10.388 2.8027 0 5.0958-0.8885 5.0958-1.9743s-1.3759-1.4464-3.0575-0.80106-3.0575 0.13453-3.0575-1.1335c0-2.6751 9.7034-6.8249 12.262-5.244 2.1535 1.3308 8.1217-6.9382 8.1217-11.253 0-3.9904 6.8331-17.562 11.362-22.566 1.8698-2.066 6.5122-4.7837 10.316-6.0391 5.9026-1.948 8.2627-1.6313 16.095 2.16 11.334 5.487 13.794 9.8043 12.084 21.208-1.4562 9.7097 2.4087 15.628 4.6382 7.1021 1.148-4.3897 1.3145-4.4344 2.6653-0.71463 1.8457 5.0828 0.66123 7.0249-4.2843 7.0249-2.1761 0-3.9564 0.91724-3.9564 2.0383s0.91725 2.0383 2.0383 2.0383 2.0383 0.91725 2.0383 2.0383-1.3759 2.0383-3.0575 2.0383c-3.4305 0-3.5685 0.37342-1.8202 4.9291 0.68039 1.7733 2.1105 3.2242 3.1777 3.2242s1.3736-0.91724 0.6808-2.0383-0.28842-2.0383 0.8989-2.0383 2.1586 1.3704 2.1586 3.0454c0 1.6749 6.7611 11.994 15.025 22.931s16.628 23.032 18.587 26.878l3.5628 6.9922-11.453 22.096c-6.2992 12.153-11.441 24.599-11.426 27.659 0.0204 3.8084 3.821 10.026 12.056 19.712 7.1755 8.4399 12.413 16.664 12.981 20.383 1.172 7.679 0.79352 8.1449-4.3716 5.3806-2.2646-1.2118-6.8312-2.2034-10.148-2.2034-3.4804 0-6.5269-1.2929-7.204-3.0575-1.9256-5.0179-5.0004-3.5434-11.596 5.5618-3.8907 5.371-5.8481 10.132-5.1938 12.633 0.57725 2.2079 0.0408 5.2295-1.1914 6.7146s-2.4615 12.081-2.7312 23.547-1.945 27.267-3.7234 35.115-3.2193 17.937-3.2024 22.422-0.70016 14.115-1.5938 21.402l-1.625 13.249-10.192 0.1957c-13.959 0.2676-20.828 2.4841-22.038 7.1113-1.4845 5.6769-16.886 5.6316-18.691-0.055zm35.49-33.375c0.0795-5.3989 0.98512-11.389 2.0141-13.311 2.2974-4.2929 2.8826-47.573 0.99001-73.239-1.4254-19.332-4.5834-27.273-5.2947-13.313-0.21749 4.2701-0.65634 12.809-0.97513 18.975s-0.95455 20.383-1.4128 31.594-1.4865 28.18-2.2854 37.709c-1.0012 11.944-0.6863 19.225 1.0136 23.441 2.267 5.6218 2.6007 5.7861 4.1366 2.0383 0.91867-2.2422 1.735-8.4937 1.8137-13.893zm-28.59-164.97c3.1692-18.254 3.1777-18.652 0.66551-30.753-3.6708-17.681-5.9753-15.36-7.5399 7.5962-1.4321 21.01-0.17733 37.934 2.8119 37.934 0.82348 0 2.6516-6.65 4.0626-14.778zm69.197-13.189c2.4423-5.8526 5.0026-14.741 5.6894-19.752 1.2079-8.8118 0.90909-9.4672-9.0868-19.934l-10.336-10.823-3.3426 7.9827c-4.2008 10.032-3.1737 25.063 2.6584 38.899 2.3628 5.6054 4.8371 11.95 5.4984 14.099 1.5324 4.9818 3.3712 2.8231 8.9193-10.472zm-380.52 203.89c-1.4945-0.5966-4.5077-5.2615-6.6961-10.367-3.0279-7.064-4.5463-8.7148-6.3532-6.9078-3.9792 3.9792-4.629 2.7898-4.3025-7.8743 0.33856-11.054 1.9028-14.13 15.962-31.391 5.0558-6.2073 16.53-21.162 25.498-33.233l16.306-21.947v-13.69c0-14.323-0.41479-15.638-15.541-48.479-4.9054-10.65-8.9174-21.611-8.9158-24.358 0-10.514-3.9089-0.51692-7.1453 18.243-3.6728 21.289-7.5304 31.242-13.816 35.644-6.375 4.4651-12.438 0.40603-10.898-7.2958 0.90929-4.5456 0.43416-5.927-2.0389-5.927-2.2387 0-2.8021-1.0907-1.8426-3.5671 3.245-8.3758 3.3549-23.076 0.29454-39.396-5.1965-27.712-4.69-31.286 6.8801-48.566 5.5581-8.3008 11.513-19.308 13.234-24.46 2.1688-6.4953 5.3451-10.877 10.36-14.291 10.132-6.8983 11.475-10.311 9.3608-23.796-3.0271-19.303 1.6647-32.222 12.353-34.016 3.6863-0.61883 8.3076-1.7599 10.269-2.5357 2.4727-0.97778 3.567-0.43823 3.567 1.7589 0 2.6502 1.0216 2.8133 6.2358 0.99572 5.3363-1.8604 6.8993-1.551 10.833 2.1443 2.5281 2.375 5.5693 4.3182 6.7582 4.3182s2.7122 2.7517 3.3848 6.115 2.5222 6.115 4.1105 6.115 3.4629 2.2931 4.1663 5.0958c1.4535 5.7915-0.41235 15.287-3.0039 15.287-0.94884 0-2.3129 3.1329-3.0312 6.9621-0.97269 5.1851-2.6066 7.2884-6.4022 8.2409-2.8029 0.70363-6.3304 0.25499-7.8386-0.99674-2.0687-1.7169-4.1488-1.3428-8.468 1.5226-3.149 2.0891-7.5599 4.7727-9.8021 5.9633-5.9947 3.1834-5.966 8.9093 0.11822 23.427 3.106 7.4121 5.564 17.341 5.7344 23.164 0.21912 7.49 1.8296 12.455 6.0754 18.732 6.573 9.7167 5.5293 9.7886 29.147-2.0132 14.723-7.3575 30.767-13.032 39.682-14.035 5.3865-0.60579 16.063 3.8312 16.063 6.6757 0 0.84529 6.8793 16.723 15.287 35.283s15.287 35.052 15.287 36.648-2.821 3.8844-6.2688 5.0864c-5.2929 1.8451-6.04 2.9077-4.798 6.8239 2.032 6.4085 10.512 19.823 16.769 26.529 2.8661 3.0711 4.6824 6.1127 4.0367 6.7586-2.5071 2.5069-17.634-3.4904-26.784-10.619-7.3-5.6875-10.174-6.9148-11.976-5.1135-3.4423 3.4423-4.5638 2.9452-4.999-2.2161-0.82919-9.8341-18.934-74.923-20.829-74.881-2.1983 0.0489-29.844 19.216-38.181 26.471l-8.1971 7.1341-2.4201 33.026-2.4199 33.026-21.456 44.135c-22.422 46.122-21.505 44.964-32.156 40.594-6.9268-2.8425-3.0485 7.6133 4.7656 12.848 3.9238 2.6282 7.4399 5.6408 7.8135 6.6944 0.70607 1.9911-19.01 2.4134-23.78 0.5096zm1.937-215.47c4.1447-20.704 3.2513-26.802-2.9262-19.976-4.6068 5.0903-6.3237 19.589-4.3137 36.427 0.91419 7.6565 2.008 11.628 2.4309 8.8251s2.587-14.177 4.809-25.276zm-52.866 211.64c-3.6164-2.5544-4.6474-5.084-4.3887-10.768 0.61047-13.424 0.22115-14.564-4.9737-14.564-4.2224 0-5.0997-1.2236-6.2118-8.6629-2.2788-15.245-11.378-46.958-17.544-61.15-19.736-45.418-21.233-48.41-24.228-48.41-0.79372 0-4.5701 4.3569-8.392 9.682s-12.147 15.724-18.501 23.11l-11.552 13.428 9.001 27.333c4.9505 15.033 8.1086 27.63 7.0181 27.993-1.2517 0.41725-1.1959 1.9225 0.15083 4.0827 1.3861 2.2226 1.5344 7.7071 0.42357 15.652-1.7159 12.27-5.1812 16.326-6.4286 7.5246-0.54077-3.8147-1.2159-4.2497-3.5671-2.2984-1.5952 1.3239-2.9001 3.6382-2.9001 5.1431 0 4.1751-6.8734 6.9564-17.192 6.9564-11.041 0-12.663-4.2744-3.4336-9.0473 4.0269-2.0824 6.1584-4.9821 6.7811-9.2248 0.53138-3.6199-2e-3 -6.1916-1.2866-6.1971-1.9662 0-14.443-51.341-16.843-69.293-0.97126-7.2664 0.1651-9.6887 30.906-65.876 4.7715-8.7209 7.2242-15.555 6.584-18.345-2.3799-10.371-10.145-28.86-12.996-30.945-2.5754-1.8832-2.7044-3.67-0.78027-10.816 1.7275-6.4154 1.7126-10.537-0.0591-16.453-2.1624-7.2171-1.9075-8.566 2.9774-15.755 2.9382-4.3239 5.3422-8.5471 5.3422-9.3848s-3.9087-5.1262-8.6859-9.5296c-10.016-9.2322-23.927-31.586-23.927-38.447 0-3.5047 3.0467-6.5823 12.153-12.276 26.319-16.458 35.332-20.848 42.665-20.784 7.0328 0.0611 7.1745 0.20179 3.2744 3.2132-3.9898 3.0813-3.9152 3.2896 3.5059 9.7803 4.1704 3.6476 11.266 7.8477 15.767 9.3332 13.138 4.3359 15.095 7.8808 15.767 28.562 0.34529 10.628-0.25968 18.659-1.4617 19.402-2.84 1.7552-0.4362 5.0489 3.7413 5.1262 1.8956 0.0347 8.033 2.3198 13.638 5.077 16.376 8.0558 17.91 7.3975 23.377-10.035 2.6021-8.2972 4.2181-16.423 3.5909-18.056s-4.8875-3.5703-9.4678-4.3027c-7.5817-1.2124-11.871-5.2493-5.7801-5.4399 1.4014-0.0448-0.54361-1.4219-4.3222-3.0624-6.0997-2.648-6.5644-3.382-4.1439-6.5448 1.4996-1.9592 2.9376-3.896 3.1957-4.3041s2.9346 1.1971 5.9476 3.5671 6.9594 4.3137 8.7701 4.3192c1.8108 0 5.9947 2.1724 9.2978 4.8153l6.0055 4.8053-0.38646 21.98c-0.5267 29.954-3.021 34.381-19.882 35.284-7.0638 0.37831-17.504-0.79596-25.008-2.8129-16.794-4.5138-17.857-3.4064-14.541 15.147 2.0732 11.601 2.0701 14.983-0.0204 17.496-4.7103 5.6757-0.84957 20.451 7.3333 28.066 10.779 10.03 14.59 19.273 21.064 51.088 3.2426 15.934 7.3257 32.361 9.0738 36.504s7.2077 21.3 12.132 38.128c8.8043 30.084 8.886 30.64 4.8968 33.289-3.6812 2.4441-3.8298 3.4525-1.604 10.882 3.5375 11.807 2.1849 18.071-4.0554 18.777-2.8027 0.3172-7.2228-0.9256-9.8224-2.7619zm-76.988-304.79c0.95761-6.6076 3.1425-11.085 7.3995-15.164l6.0408-5.7874-5.6103-2.6331c-3.0856-1.4482-7.1614-3.7582-9.0575-5.1335-2.936-2.1294-5.2036-0.96759-15.287 7.8324-6.512 5.683-12.149 11.898-12.526 13.812-0.42539 2.1578 3.8298 7.6486 11.203 14.456 11.603 10.713 11.944 10.869 14.184 6.4853 1.2621-2.4706 2.9062-8.7114 3.6537-13.869zm-153.9 297.45c-1.374-2.5673-3.7291-5.8989-5.2338-7.4034s-2.7354-6.285-2.7354-10.623-0.88789-8.4362-1.9731-9.1068c-1.2293-0.7599-1.5208-15.981-0.77313-40.377 1.0689-34.885 0.70893-41.826-3.2992-63.618-2.9912-16.262-6.6243-28.737-10.841-37.221l-6.3414-12.761 8.5562-8.7183c4.7059-4.7949 8.5562-9.7368 8.5562-10.982s2.7517-7.4949 6.115-13.888c6.7821-12.893 7.2122-17.427 3.7872-39.931-2.8589-18.786-1.48-25.793 5.4162-27.524 6.7866-1.7032 6.3916-3.4768-2.0554-9.2293-4.924-3.3532-7.1268-6.4207-7.1416-9.9448-0.02038-2.8027-1.8526-8.0991-4.0907-11.77s-4.0524-8.2566-4.0322-10.192c0.04077-3.8355 12.956-15.426 22.491-20.183 12.563-6.267 23.585 4.2303 32.504 30.956 5.9183 17.734 10.082 23.418 17.153 23.418 4.9845 0 10.958 9.7913 12.149 19.912 6.7984 57.8 7.0055 54.524-5.2858 83.597l-6.2752 14.843 6.7048 21.847c8.7093 28.379 17.318 48.591 31.54 74.053l11.532 20.645-4.5369 4.8292c-4.2542 4.5283-4.3255 5.0628-1.1441 8.5781 6.374 7.0432 2.4166 26.209-4.5255 21.918-1.0901-0.6736-2.2768 0.8527-2.6372 3.3916-0.51467 3.6249-1.9688 4.6166-6.7703 4.6166h-6.115l0.12434-14.66c0.0693-8.0632-0.51549-14.265-1.2978-13.781-2.1769 1.3455-5.4796-3.51-7.0049-10.298-3.1702-14.109-14.108-49.142-16.225-51.966-1.2605-1.6818-4.9024-8.1025-8.0929-14.268s-10.882-18.348-17.092-27.071c-16.11-22.631-17.02-21.109-18.247 30.516-0.5587 23.506 0 49.225 1.3547 61.547 1.4839 13.569 1.6123 22.014 0.35813 23.526-1.0762 1.2968-2.2324 8.7403-2.5693 16.541-0.55259 12.801-1.0457 14.245-5.0605 14.816-2.9607 0.4215-5.2839-0.9276-6.9466-4.0344zm55.058-205.42c2.459-13.759 1.5646-29.575-1.7896-31.648-0.8777-0.54239-3.1879 4.0756-5.1339 10.263-3.0732 9.7705-3.212 12.977-1.0573 24.396 1.3642 7.2309 3.1414 12.739 3.9492 12.24s2.6219-7.3618 4.0316-15.25zm493.94-150.26c-3.9124-1.5787-3.0929-8.8169 1.0192-9.0024 2.2473-0.10192 1.4931-0.91847-2.0383-2.2083-5.2907-1.9321-5.6046-2.7532-5.5887-14.617 0.0204-12.045 7.4949-37.657 24.502-83.911 4.1431-11.268 4.3895-14.46 3.1325-40.579-1.371-28.484 0.0204-41.223 6.0603-55.518 2.2689-5.3693 2.2413-8.6484-0.16918-20.169-1.5832-7.5662-3.2658-14.144-3.7393-14.618s-1.9138 2.3299-3.2008 6.2297c-2.502 7.5814-5.3432 9.4892-14.132 9.4892-6.0481 0-10.433-3.2601-10.433-7.7571 0-1.5758-2.2931-5.5904-5.0958-8.9212-5.3239-6.3271-6.7093-14.697-2.8296-17.095 1.2464-0.77032 3.0669-0.13656 4.0454 1.4085 1.3893 2.1937 1.786 1.9905 1.8104-0.92788 0.0448-5.451 4.3973-3.1144 8.065 4.3303 1.7473 3.5465 3.7214 6.469 4.3871 6.4944s2.7314-7.6958 4.5907-17.158c4.4484-22.641 6.3592-27.23 12.503-30.029 3.4117-1.5545 5.1368-3.9821 5.1368-7.2294 0-3.0359-0.84957-4.3638-2.2417-3.5035-1.6097 0.99484-1.6392 0.2597-0.10396-2.6076 3.1942-5.9686 0.70771-13.207-4.0214-11.706-2.1031 0.66753-3.8239 0.70652-3.8239 0.0866s5.7328-7.0259 12.739-14.236c15.966-16.428 23.141-18.648 31.915-9.8736 8.5601 8.56 11.648 20.287 8.3979 31.894-1.412 5.0435-4.2956 10.734-6.4077 12.645-5.3642 4.8546-4.7994 10.725 2.0754 21.565 7.5758 11.946 10.723 14.025 9.1237 6.0276-0.9576-4.7881-0.31349-6.5057 3.1304-8.3488 2.3846-1.2763 5.1753-1.8017 6.2014-1.1675 2.5475 1.5744 0.60354 29.591-2.2954 33.084-1.2817 1.5444-4.3451 7.1564-6.8074 12.471-3.3838 7.3037-4.0181 10.892-2.5974 14.694 7.3379 19.641 8.4097 28.307 8.8151 71.277 0.5108 54.128 2.4572 83.955 6.225 95.398 1.5882 4.8233 2.3508 10.908 1.6946 13.523-0.72808 2.9013 0.51386 8.0988 3.1877 13.34 5.0789 9.9558 4.2252 14.307-2.8074 14.307-7.5695 0-11.441-2.0785-11.441-6.1423 0-2.5809-1.1309-3.372-3.8172-2.6694-3.2578 0.85181-4.2794-1.0495-6.9731-12.977-1.7358-7.6863-4.1873-23.585-5.448-35.331-4.8985-45.643-8.117-67.218-10.027-67.218-0.74379 0-3.0956 8.0259-5.2264 17.835s-5.0593 20.715-6.508 24.236-5.8756 19.113-9.8381 34.651-9.1892 32.598-11.615 37.91c-3.4097 7.4674-3.9415 10.705-2.3435 14.268 1.1368 2.535 1.6708 5.7558 1.1869 7.1571-0.86078 2.4923-13.178 3.2952-18.375 1.1979zm-486.67-3.5102c-4.0296-2.9464-7.6993-21.711-7.0222-35.906 0.96617-20.251-0.82776-78.096-2.971-95.801-3.2968-27.234-5.8655-42.805-7.0616-42.805-0.71035 0-3.4806 4.8155-6.1561 10.701s-8.4409 16.663-12.812 23.95-8.5171 15.542-9.2138 18.345-3.4009 8.3369-6.0096 12.298-6.222 12.216-8.0298 18.345-4.095 12.135-5.0832 13.349-5.0365 8.6828-8.9965 16.599c-6.0609 12.115-6.8726 15.254-5.1294 19.839 1.3848 3.6427 1.3956 6.7085 0.03261 9.2558-1.1213 2.0952-2.0385 7.141-2.0385 11.213 0 11.003-8.5666 21.4-17.632 21.4-8.8485 0-10.226-3.563-5.2426-13.561 2.1496-4.3129 5.067-13.803 6.4833-21.09s3.3787-16.001 4.3612-19.364 4.2407-15.287 7.2405-26.498 8.098-25.713 11.329-32.228 6.8129-16.921 7.9596-23.124c2.1498-11.629 12.348-39.033 17.388-46.726 2.2705-3.4651 2.4733-7.7515 0.99287-20.983-1.0232-9.1457-2.8797-17.857-4.1258-19.358s-3.5746-6.3022-5.1749-10.669l-2.9093-7.9391-0.14268 10.331c-0.0795 5.6822-1.6164 15.29-3.4164 21.352-3.4195 11.515-4.6818 42.167-1.9203 46.635 1.1105 1.7968 0.4572 2.3677-2.1376 1.8679-5.0442-0.97146-13.555-13.881-11.805-17.906 1.5726-3.6162 4.2067-32.074 6.4464-69.643 1.5911-26.686 3.2601-31.603 11.124-32.771 2.3396-0.34756 4.5024-2.357 4.8066-4.4654s1.5336-4.8143 2.7324-6.013c2.992-2.9921 2.7476-9.4652-0.36832-9.7522-16.026-0.33186-3.6387 0.27521-3.5671-9.7166 0-4.1878 1.2191-9.2816 2.7093-11.319 2.2843-3.1241 3.4305-3.3191 7.3086-1.2436 6.1109 3.2704 7.3231 1.6609 2.2244-2.9532-6.8502-6.1994-3.5532-14.658 3.4494-8.8496 2.959 2.4546 2.9503 2.0795-0.08969-3.7999-4.1488-8.0247-4.2833-11.159-0.25031-5.8266 2.7061 3.5777 2.9927 3.6144 2.9927 0.38377 0-2.7102 1.5006-1.9431 6.2154 3.1775 3.4185 3.7127 5.6017 5.1148 4.8518 3.1158-1.2391-3.3027-0.82959-3.3996 4.4857-1.0606 3.2173 1.4156 6.4348 3.398 7.1502 4.4052s2.2609 1.238 3.4344 0.51276 6.098 2.7026 10.943 7.6175c7.1184 7.2205 8.3013 9.411 6.1618 11.41-1.6158 1.5093-2.3365 5.5892-1.8488 10.466 0.43966 4.396 0.0999 7.9927-0.75377 7.9927-1.7073 0-1.2387 5.9434 1.1892 15.082 1.8471 6.9524-2.2175 5.7442-5.1533-1.5318-1.7008-4.2153-1.7721-4.1887-1.9266 0.71816-0.11823 3.7325-0.638 4.3417-1.9458 2.277-1.5065-2.3789-2.4721-2.3378-6.1859 0.26355-4.3373 3.0379-4.2994 3.1014 2.6309 4.4015 9.9627 1.869 12.38 5.5698 10.457 16.009-3.8822 21.071-2.7266 30.005 5.7813 44.701 5.2299 9.0333 8.3257 17.19 8.9321 23.535 0.5106 5.3408 1.9056 12.279 3.1001 15.418 1.5385 4.0438 1.5361 7.0147 0 10.192-3.29 6.7658-7.002 48.06-5.5503 61.743 0.70281 6.6241-0.0571 23.968-1.6883 38.542-3.0022 26.821-2.2599 41.683 2.7764 55.587 3.9007 10.769-4.0461 16.659-13.323 9.875zm-33.61-337.58c0-1.1211-0.97146-2.0383-2.1588-2.0383s-1.5917 0.91724-0.8987 2.0383 1.6641 2.0383 2.1586 2.0383 0.8989-0.91724 0.8989-2.0383zm378.45 337.5c-0.65674-1.7116 0.15491-6.3414 1.8043-10.288 3.0864-7.3871 4.4607-31.636 2.0169-35.59-0.75602-1.223-1.7366-22.622-2.1796-47.553-0.78658-44.295-2.638-60.835-6.9708-62.279-2.554-0.8512-2.8757-10.964-0.43681-13.727 0.94027-1.065 2.8145-8.2201 4.1651-15.9 1.4501-8.2462 5.7578-20.445 10.52-29.792 8.2831-16.256 9.5793-21.313 6.0267-23.509-2.9823-1.8431-2.4874-11.701 0.8247-16.43 4.6339-6.6156 4.754-18.545 0.23992-23.817-5.4013-6.3083-9.2156-18.217-10.607-33.115l-1.171-12.54 7.8593-6.4783c4.4117-3.6366 10.206-6.4783 13.208-6.4783 11.27 0 26.188 14.921 30.366 30.373 2.9647 10.965 7.4549 16.122 16.364 18.791 7.0155 2.1019 8.3999 3.573 11.085 11.78 1.6879 5.158 4.3235 16.716 5.8565 25.685s4.6682 20.557 6.9666 25.752 4.8534 13.438 5.6779 18.318c2.3035 13.634 6.7307 24.595 11.198 27.724 7.2354 5.0679 3.3824 24.557-3.9582 20.021-2.575-1.5915-10.339-18.886-10.339-23.03 0-1.6814-3.8276-9.9908-8.5057-18.465s-10.494-21.888-12.925-29.807l-4.4191-14.398-7.7951 15.713-7.7953 15.713 3.3942 10.509c1.8667 5.7801 3.3942 13.518 3.3942 17.195s1.7014 12.515 3.7811 19.64 4.8363 19.651 6.1262 27.835c2.3718 15.051 6.2307 24.545 15.571 38.308 2.8233 4.1604 8.4808 18.202 12.572 31.203s10.563 30.278 14.381 38.393c4.5554 9.6822 6.7216 17.04 6.3013 21.402-0.5852 6.0748-1.2996 6.7026-8.2841 7.2807-5.1574 0.42683-7.7438-0.23624-7.9515-2.0383-0.16918-1.469-0.50897-5.4228-0.75479-8.786-0.74378-10.171-10.879-35.931-19.247-48.92-4.3337-6.7264-9.3822-15.899-11.218-20.383s-5.5318-10.446-8.2116-13.249-7.3791-10.599-10.443-17.326-8.2391-16.587-11.501-21.912c-4.8875-7.9788-6.9755-9.682-11.871-9.682-6.6044 0-6.4286-0.4839-7.0322 19.364-0.52487 17.26-4.1512 57.968-6.8773 77.198-1.6368 11.546-1.4382 14.847 1.129 18.765 1.8363 2.8027 2.4303 5.8371 1.447 7.3918-0.91745 1.4507-2.1431 7.2238-2.7236 12.829l-1.0554 10.192-8.4048 0.61414c-6.0683 0.44354-8.7364-0.25092-9.5988-2.498zm27.006-276.92c-0.46698-0.31722-2.4753-1.8228-4.4629-3.3458-3.1462-2.4107-3.4476-2.336-2.3298 0.57679 0.70607 1.8402 2.7144 3.3458 4.4629 3.3458s2.797-0.25956 2.3298-0.57678zm-328.6 273.66c-0.70974-2.714 0.28985-5.7507 2.6796-8.1404 5.6062-5.6062 6.7562-15.528 5.5188-47.614-0.85956-22.288-0.38606-31.74 2.0982-41.875 2.647-10.799 2.7929-15.1 0.83428-24.583-1.3055-6.3214-2.3738-18.984-2.3738-28.14 0-18.229 3.6904-30.534 17.595-58.669l7.4588-15.092-4.8693-9.1786c-3.7165-7.0056-5.7407-8.902-8.5501-8.0103-5.3706 1.7045-13.673-4.4862-13.673-10.195 0-2.6491 3.5499-10.195 7.8887-16.769 6.3909-9.6832 8.0956-14.371 8.9788-24.689 1.3844-16.174 11.365-38.451 18.43-41.137 6.1435-2.3358 18.702 0.32839 23.954 5.0816 2.1555 1.9509 6.2956 8.6824 9.2 14.959 4.1606 8.9914 5.0514 13.432 4.1998 20.934-1.0269 9.0475-0.78904 9.6244 4.7682 11.562 3.2171 1.1215 7.2556 4.1855 8.9745 6.809 3.6904 5.6324 8.6066 26.071 10.57 43.943 1.6276 14.817 0.73012 16.426-13.676 24.517l-9.9046 5.5628-2e-3 16.408c-1e-3 9.0246 0.79617 17.28 1.7717 18.345 2.3286 2.542 9.6188 27.48 12.186 41.684 1.1922 6.5968 5.7994 17.828 11.194 27.29 5.0424 8.8434 11.152 22.602 13.578 30.575s6.088 18.623 8.1392 23.668 5.2478 14.372 7.1037 20.728 4.5748 12.016 6.042 12.579c1.6441 0.63086 2.2823 3.0412 1.6631 6.2803-0.86343 4.5165-2.0618 5.2564-8.5128 5.2564-8.362 0-12.282-2.8141-12.636-9.0705-0.19364-3.4382-0.40155-3.5467-1.1688-0.61149-2.7403 10.487-7.0803-4.1133-6.8174-22.934 0.11007-7.8754-1.3004-11.135-9.9533-23.004-5.5448-7.6056-11.571-18.311-13.39-23.79s-4.6857-11.104-6.3685-12.501-5.6174-7.694-8.7432-13.994-8.9511-16.104-12.945-21.786-9.2456-14.22-11.671-18.973-4.8836-8.1671-5.4639-7.5868c-2.6549 2.6549-10.479 46.154-12.897 71.7-0.84876 8.9686-2.9874 22.172-4.7523 29.342-2.628 10.675-2.7615 14.365-0.73705 20.383 2.6545 7.8916 1.1235 19.554-3.7744 28.75-2.1696 4.0736-4.5298 5.2183-11.764 5.7063-7.779 0.52467-9.2093 2e-3 -10.182-3.7183zm88.251-228.24c0-2.1098-0.91725-4.4029-2.0383-5.0958-1.1924-0.73695-2.0383 1.3778-2.0383 5.0958s0.8459 5.8328 2.0383 5.0958c1.1211-0.69286 2.0383-2.986 2.0383-5.0958zm-52.996-47.22c0-4.8198-3.1802-3.3104-4.619 2.1924-0.72768 2.7827-0.19568 3.6342 1.7921 2.8712 1.5548-0.59659 2.8269-2.8752 2.8269-5.0636zm119.56 278.21c-0.75764-0.75764 0.35508-3.2801 2.4727-5.6054 2.4028-2.6382 5.1975-11.514 7.4335-23.607 3.151-17.042 3.3227-23.555 1.423-54.015-2.1343-34.222-2.1048-34.734 2.4741-42.79 2.5487-4.4843 7.1567-15.033 10.24-23.441s6.4297-16.88 7.4368-18.827c2.4315-4.6998 2.3141-5.6272-0.71667-5.6643-5.3585-0.0652-7.958-3.8047-10.738-15.444-4.2674-17.869-3.6358-35.141 2.2161-60.599 5.7348-24.949 10.363-32.723 18.298-30.731 7.3222 1.8378 8.298-0.74733 8.7674-23.23 0.27212-13.039 0.95699-15.517 5.5611-20.121 4.4827-4.4826 6.4937-5.084 13.747-4.1111 8.8534 1.1875 17.661 9.1184 17.682 15.922 0 1.8246 1.386 4.4593 3.0677 5.8549 4.2631 3.5382 4.1353 19.533-0.16918 21.185-2.8765 1.1038-2.8212 1.7738 0.50958 6.171 3.956 5.2228 19.315 17.365 27.431 21.686 10.205 5.4331 20.129 14.908 20.129 19.219 0 3.3266-3.5824 6.4094-14.778 12.716-8.1278 4.579-16.834 8.9296-19.348 9.6682-4.3581 1.2805-4.4266 1.6205-1.4764 7.3255 1.7014 3.2905 3.8479 5.9827 4.7701 5.9827s3.3412 3.6919 5.3759 8.2042l3.6998 8.2042-5.1319 5.5544c-4.0893 4.426-6.2764 11.232-10.766 33.502-3.6203 17.959-5.1565 30.493-4.2984 35.068 2.5385 13.531 1.5188 33.047-2.6425 50.568-2.2972 9.6722-4.8047 27.302-5.5724 39.176-1.2707 19.654-1.7803 21.686-5.6796 22.651-4.6239 1.1449-12.666 0.33469-14.457-1.4568-1.0932-1.0932 0.68161-11.224 6.2511-35.684 2.3922-10.505 2.4847-21.531 0.564-67.264-1.2634-30.085-2.7364-55.158-3.2735-55.719s-2.6545 1.274-4.7052 4.0766-10.237 13.81-18.191 24.46l-14.462 19.364 1.2444 14.441c0.82226 9.5414 0.15899 20.165-1.9554 31.31-4.1967 22.123-4.0397 28.16 0.97533 37.517 3.2519 6.0677 3.8767 9.7788 2.8259 16.786-1.6023 10.685-4.9627 11.989-4.9627 1.926 0-9.2421-4.704-7.7631-10.32 3.2448-3.6172 7.0907-4.8292 7.902-11.803 7.902-4.2746 0-8.392-0.61986-9.1496-1.3775zm39.052-187.68c-0.11618-3.083 0.46229-12.026 1.2835-19.874 1.1953-11.418 0.79168-15.897-2.0192-22.421-3.0874-7.166-3.7091-7.6597-5.1347-4.0766-1.9766 4.9671-2.4517 48.716-0.54994 50.618 3.2548 3.2548 6.618 1.0304 6.4203-4.2464zm65.197-40.048c3.03-1.5668 7.182-4.6975 9.2269-6.957 3.6488-4.0318 3.5456-4.209-5.5379-9.5324-11.144-6.5311-17.378-6.0522-21.562 1.6562-3.0459 5.612-2.9458 5.9108 3.9315 11.72 8.2538 6.9725 7.0132 6.6956 13.942 3.1128z"/>
 </g>
</svg>
